<svg width="20" height="20" viewBox="0 0 20 20" fill="none" xmlns="http://www.w3.org/2000/svg">
<path d="M10.5 1C15.4707 1 19.5 5.0293 19.5 10C19.5 14.9707 15.4707 19 10.5 19C9.0636 19.002 7.64774 18.6587 6.37171 17.9992L2.92831 18.9595C2.73619 19.0131 2.53328 19.0147 2.34036 18.9641C2.14744 18.9134 1.97144 18.8124 1.83041 18.6714C1.68937 18.5304 1.58837 18.3544 1.53774 18.1614C1.48712 17.9685 1.48869 17.7656 1.54231 17.5735L2.50351 14.1328C1.84232 12.8556 1.49814 11.4382 1.50001 10C1.50001 5.0293 5.52931 1 10.5 1ZM10.5 2.35C8.4711 2.35 6.52529 3.15598 5.09064 4.59063C3.65599 6.02528 2.85001 7.97109 2.85001 10C2.85001 11.323 3.18571 12.5947 3.81571 13.7233L3.95071 13.9663L2.94991 17.5519L6.53821 16.5511L6.78121 16.6861C7.80215 17.2537 8.93953 17.58 10.1061 17.6399C11.2727 17.6998 12.4375 17.4918 13.5113 17.0318C14.585 16.5717 15.5391 15.8719 16.3005 14.986C17.0618 14.1001 17.6101 13.0515 17.9035 11.9208C18.1968 10.7901 18.2272 9.60728 17.9925 8.46297C17.7578 7.31866 17.2642 6.2433 16.5495 5.31934C15.8348 4.39538 14.9179 3.64737 13.8693 3.13266C12.8207 2.61795 11.6681 2.35022 10.5 2.35ZM7.57501 10.9H11.6232C11.7942 10.9 11.9588 10.965 12.0838 11.0818C12.2088 11.1985 12.2848 11.3584 12.2964 11.529C12.3081 11.6996 12.2545 11.8683 12.1466 12.001C12.0387 12.1336 11.8844 12.2204 11.715 12.2437L11.6232 12.25H7.57501C7.40398 12.2499 7.23936 12.185 7.11439 12.0682C6.98943 11.9515 6.91344 11.7916 6.90178 11.621C6.89013 11.4504 6.94367 11.2817 7.05159 11.149C7.15952 11.0164 7.31378 10.9296 7.48321 10.9063L7.57501 10.9ZM7.57501 7.75H13.4295C13.6004 7.75028 13.7649 7.8154 13.8897 7.93223C14.0145 8.04906 14.0903 8.20888 14.1019 8.37944C14.1134 8.54999 14.0598 8.71857 13.9519 8.85114C13.844 8.98371 13.6898 9.0704 13.5204 9.0937L13.4295 9.1H7.57501C7.40398 9.09994 7.23936 9.03498 7.11439 8.91822C6.98943 8.80147 6.91344 8.64163 6.90178 8.47101C6.89013 8.30038 6.94367 8.13169 7.05159 7.99903C7.15952 7.86636 7.31378 7.77961 7.48321 7.7563L7.57501 7.75Z" fill="#0055D4"/>
</svg>
