<svg width="12" height="16" viewBox="0 0 12 16" fill="none" xmlns="http://www.w3.org/2000/svg">
<path d="M0.630749 3.82679C0.566394 2.92399 0.768642 2.03469 1.30414 1.31942C1.7684 0.670991 2.37285 0.316861 3.10141 0.109908C3.71505 -0.070351 4.11725 0.150519 4.29422 0.826007C4.54704 1.83589 4.90787 2.84582 5.03888 3.90915C5.08025 4.37727 4.77458 5.03915 4.44362 5.38004C3.61394 6.18878 3.78632 6.77734 4.41605 8.00139C4.61141 8.39603 4.92168 9.07827 5.52613 9.98132C6.15587 10.8911 6.48912 11.3794 7.29812 10.9652C8.19675 10.5176 8.85177 10.8054 9.52977 11.528C9.98943 12.0498 10.4951 12.4981 10.9547 13.0199C11.6189 13.7959 11.589 14.3309 11.0696 14.879C10.1342 15.8883 8.58978 16.2219 7.44063 15.546C6.8063 15.1779 6.17427 14.6961 5.67094 14.1341C3.45308 11.6321 1.85346 8.72238 0.890461 5.43852C0.736474 4.88341 0.665225 4.32165 0.630749 3.82679Z" fill="white"/>
</svg>
