<svg width="25" height="25" viewBox="0 0 25 25" fill="none" xmlns="http://www.w3.org/2000/svg">
<path d="M5.39629 6.62432C5.31173 5.42623 5.57747 4.24606 6.28108 3.29684C6.89108 2.43632 7.68529 1.96636 8.64258 1.69172C9.44887 1.4525 9.97733 1.74561 10.2099 2.64204C10.542 3.98224 11.0162 5.3225 11.1883 6.73361C11.2427 7.35485 10.841 8.23322 10.4062 8.6856C9.31602 9.75888 9.54251 10.5399 10.3699 12.1643C10.6266 12.6881 11.0343 13.5934 11.8285 14.7919C12.656 15.9992 13.0938 16.6472 14.1568 16.0975C15.3375 15.5035 16.1982 15.8855 17.089 16.8444C17.693 17.5369 18.3574 18.1318 18.9613 18.8243C19.8341 19.8542 19.7948 20.5641 19.1123 21.2915C17.8833 22.6309 15.854 23.0736 14.344 22.1766C13.5106 21.6881 12.6801 21.0487 12.0188 20.303C9.10465 16.9825 7.00285 13.1212 5.73753 8.76321C5.5352 8.02654 5.44159 7.28104 5.39629 6.62432Z" stroke="#D7D9DF" stroke-width="2" stroke-miterlimit="10"/>
</svg>
