<svg width="30" height="28" viewBox="0 0 30 28" fill="none" xmlns="http://www.w3.org/2000/svg">
<path d="M18.6365 17.3216C20.7272 17.5539 27.6533 20.7405 29.9614 26.3234L29.671 30.9695L27.0576 33.8733L17.1846 36.1964L0.0520654 33.0022C-0.141535 31.8406 0.284325 30.2389 0.0520198 29.542C-0.238362 28.6709 1.90852 25.0098 5.97386 21.8156C10.0392 18.6214 16.023 17.0312 18.6365 17.3216Z" fill="#0055D4"/>
<path d="M12.5382 20.5156C13.932 19.3541 13.8933 17.3214 13.6997 16.4503C14.1643 13.198 17.3779 11.6106 18.9266 11.2234C17.765 18.7733 21.2496 16.4503 19.5073 19.9348C17.765 23.4194 14.2805 22.8387 12.5382 22.8387C10.7959 22.8387 10.7959 21.9675 12.5382 20.5156Z" fill="#EFC89B"/>
<path d="M8.47348 10.6427C7.77656 7.15808 9.34462 4.93182 10.2158 4.25426C13.4101 1.06006 20.379 2.80235 19.7982 8.31961C19.2175 13.8369 15.7329 16.1599 13.9906 16.4503C12.2483 16.7407 9.34462 14.9984 8.47348 10.6427Z" fill="#FFDBB1"/>
<path d="M18.6368 10.3523C18.6368 11.2815 19.6047 10.7395 20.0887 10.3523C21.5406 9.48114 22.9924 7.15809 22.4117 5.12542C21.8309 3.09274 20.0887 1.78013 18.6368 0.908984C17.1849 0.0378388 16.5778 0 12.7916 0C9.61013 0 7.3119 2.51198 5.85999 4.25427C4.40808 5.99656 7.07301 7.12991 10 7.73885C12.7915 8.31962 15.1522 5.12542 16.6041 5.12542C18.056 5.12542 16.6041 7.15809 16.6041 8.31962C16.6041 9.48114 17.4753 7.44847 18.6368 7.73885C19.7983 8.02923 18.6368 9.19076 18.6368 10.3523Z" fill="#0A0A0A"/>
</svg>
