<svg width="32" height="32" viewBox="0 0 32 32" fill="none" xmlns="http://www.w3.org/2000/svg">
<path d="M26.4211 8.28551C26.6105 7.91586 26.7368 7.54618 26.7368 7.17654C26.7368 5.75956 25.7263 3.97296 22.8211 3.97296C21.7474 3.97296 20.4211 4.52737 19.6 4.83541L19.8526 4.52737C20.1684 4.09612 20.0421 3.54159 19.6632 3.23355C19.2211 2.92551 18.6526 3.04876 18.3368 3.4184L16.0632 6.56046L14.2947 3.48007C14.0421 3.04882 13.4737 2.86393 13.0316 3.11036C12.5895 3.35679 12.4 3.91126 12.6526 4.34252L13.0947 5.08178C12.0211 4.58892 10.5053 3.91129 9.05262 3.91129C7.85262 3.91129 7.09474 4.46579 6.33684 5.02026C5.57895 5.57473 5.07368 6.31403 5.07368 7.17654C5.07368 7.54618 5.2 7.91586 5.38947 8.28551C4.56842 8.47033 4 9.20956 4 10.0721V13.2141C4 14.2615 4.82105 15.0624 5.89474 15.0624V26.1518C5.89474 27.1991 6.71579 28 7.78948 28H24.2105C25.2842 28 26.1053 27.1991 26.1053 26.1518V15.0624C27.1789 15.0624 28 14.2615 28 13.2141V10.0721C27.8105 9.20956 27.2421 8.47033 26.4211 8.28551ZM24.8421 7.11487C24.8421 7.29969 24.7158 7.54612 24.4 7.73095C24.0842 7.97738 23.6421 8.16217 23.0737 8.16217H17.5789C18.6526 6.93002 20.6105 5.69786 22.7579 5.69786C24.4 5.75947 24.8421 6.68362 24.8421 7.11487ZM5.70526 10.0721H8.42104C8.67368 10.0721 8.92632 10.0721 9.17895 10.0721H14.5474V13.1525H5.70526V10.0721ZM8.86316 5.75953C11.0105 5.75953 13.0316 6.99168 14.0421 8.22384H8.54737C7.34737 8.22384 6.84211 7.54618 6.84211 7.17654C6.77895 6.74528 7.22105 5.75953 8.86316 5.75953ZM7.6 15.0007H14.5474V26.0901H7.6V15.0007ZM24.0211 26.0901H16.4421V15.0007H24.0211V26.0901ZM25.9158 13.1525H16.4421V10.0721H22.4421C22.6947 10.0721 22.9474 10.0721 23.2 10.0721H25.9158V13.1525Z" fill="#48494D"/>
</svg>
