<svg width="32" height="32" viewBox="0 0 32 32" fill="none" xmlns="http://www.w3.org/2000/svg">
<path d="M6 15.2381H26V24C26 24.5523 25.5523 25 25 25H23.1071C22.5549 25 22.1071 24.5523 22.1071 24V23.2857V22.2857H21.1071H10.8929H9.89286V23.2857V24C9.89286 24.5523 9.44514 25 8.89286 25H7C6.44772 25 6 24.5523 6 24V15.2381ZM25.2656 13.2381H6.81377L9.82583 8.46623C10.009 8.176 10.3283 8 10.6715 8H21.6564C22.0133 8 22.3431 8.19015 22.5218 8.49896L25.2656 13.2381Z" stroke="#48494D" stroke-width="2"/>
<path d="M4 13C3.44772 13 3 13.4477 3 14C3 14.5523 3.44772 15 4 15L4 13ZM5 15H6V13H5V15ZM4 15H5V13H4L4 15Z" fill="#48494D"/>
<path d="M28 15C28.5523 15 29 14.5523 29 14C29 13.4477 28.5523 13 28 13V15ZM27 13H26V15H27V13ZM28 13H27V15H28V13Z" fill="#48494D"/>
<path d="M10 18H11" stroke="#48494D" stroke-width="2" stroke-linecap="round"/>
<path d="M21 18H22" stroke="#48494D" stroke-width="2" stroke-linecap="round"/>
</svg>
