<svg width="32" height="32" viewBox="0 0 32 32" fill="none" xmlns="http://www.w3.org/2000/svg">
<path fill-rule="evenodd" clip-rule="evenodd" d="M18.788 6.87257L17.7745 6.44237C17.3296 6.25352 16.8313 6.23217 16.3719 6.38229L11.4541 7.98914C10.9048 8.16861 10.46 8.57687 10.2343 9.10877L5.11937 21.1587C4.68778 22.1754 5.16216 23.3496 6.17892 23.7811L17.225 28.4699C18.2417 28.9015 19.4159 28.4271 19.8475 27.4104L24.9762 15.3277C25.1939 14.8148 25.1878 14.2344 24.9594 13.7263L22.9288 9.20868C22.7222 8.74914 22.3498 8.38449 21.8861 8.18763L20.629 7.65403L19.8475 9.49504L21.1046 10.0286L23.1352 14.5462L18.0064 26.6289L6.96038 21.9401L12.0753 9.89023L16.993 8.28338L18.0065 8.71358L18.788 6.87257Z" fill="#48494D"/>
<rect x="19.3775" y="5.48364" width="2" height="5" rx="1" transform="rotate(23 19.3775 5.48364)" fill="#48494D"/>
</svg>
