<svg width="32" height="32" viewBox="0 0 32 32" fill="none" xmlns="http://www.w3.org/2000/svg">
<path d="M14 12.5V11.7192L13.2425 11.5299L13.0299 11.4767C11.2492 11.0315 10 9.43159 10 7.59612V7.18466C10 4.89032 11.5615 2.89041 13.7873 2.33395L14 2.28078V5.5V6.5H15H17H18V5.5V2.28078L18.2127 2.33395C20.4385 2.89041 22 4.89032 22 7.18466V7.59612C22 9.43159 20.7508 11.0315 18.9701 11.4767L18.7575 11.5299L18 11.7192V12.5V27C18 27.5523 17.5523 28 17 28H15C14.4477 28 14 27.5523 14 27V12.5Z" stroke="#48494D" stroke-width="2"/>
</svg>
